SplineFontDB: 3.0
FontName: Untitled1
FullName: Untitled1
FamilyName: Untitled1
Weight: Medium
Copyright: Created by hn,,, with FontForge 2.0 (http://fontforge.sf.net)
UComments: "2014-5-8: Created." 
Version: 001.000
ItalicAngle: 0
UnderlinePosition: -100
UnderlineWidth: 50
Ascent: 800
Descent: 200
LayerCount: 2
Layer: 0 0 "+gMxmbwAA"  1
Layer: 1 0 "+Uk1mbwAA"  0
XUID: [1021 957 1260883539 4919896]
OS2Version: 0
OS2_WeightWidthSlopeOnly: 0
OS2_UseTypoMetrics: 1
CreationTime: 1399486493
ModificationTime: 1399486549
OS2TypoAscent: 0
OS2TypoAOffset: 1
OS2TypoDescent: 0
OS2TypoDOffset: 1
OS2TypoLinegap: 0
OS2WinAscent: 0
OS2WinAOffset: 1
OS2WinDescent: 0
OS2WinDOffset: 1
HheadAscent: 0
HheadAOffset: 1
HheadDescent: 0
HheadDOffset: 1
OS2Vendor: 'PfEd'
DEI: 91125
Encoding: ISO8859-1
UnicodeInterp: none
NameList: Adobe Glyph List
DisplaySize: -48
AntiAlias: 1
FitToEm: 1
WinInfo: 0 12 10
BeginChars: 256 26

StartChar: A
Encoding: 65 65 0
Width: 871
Flags: HW
HStem: -50 92<152.5 174.5> 165 55<430 613 430 618> 702 20<666 678.5>
VStem: 598 85<577 599 599 599>
LayerCount: 2
Fore
SplineSet
618 165 m 1
 346 165 l 1
 324 130 209 -50 140 -50 c 0
 93 -50 50 -6 50 34 c 0
 50 62 72 110 87 110 c 0
 91 110 93 104 94 102 c 0
 103 66 134 42 171 42 c 0
 225 42 329 205 388 296 c 0
 440 377 514 498 593 667 c 1
 600 678 l 2
 618 705 659 722 673 722 c 0
 684 722 684 718 684 702 c 0
 684 678 683 652 683 628 c 0
 683 526 687 424 694 322 c 1
 702 185 711 145 718 112 c 0
 730 52 736 25 764 25 c 0
 766 25 768 25 775 29 c 0
 778 31 799 42 812 42 c 0
 817 42 821 40 821 35 c 0
 821 15 744 -30 699 -30 c 0
 656 -30 651 -8 640 37 c 0
 635 56 623 102 618 165 c 1
598 599 m 1
 597 599 l 1
 584 574 557 516 507 427 c 0
 501 416 443 312 373 204 c 1
 399 220 414 220 430 220 c 2
 613 220 l 1
 608 272 604 347 603 367 c 0
 600 425 598 483 598 541 c 2
 598 599 l 1
EndSplineSet
EndChar

StartChar: B
Encoding: 66 66 1
Width: 735
Flags: HW
HStem: -22 55<325.5 368.5> 651 55<465.5 600>
VStem: 561 85<158.5 244.5>
LayerCount: 2
Fore
SplineSet
300 679 m 2
 280 547 l 1
 401 697 529 706 563 706 c 0
 637 706 685 663 685 605 c 0
 685 511 568 439 488 405 c 1
 590 386 646 323 646 239 c 0
 646 78 439 -22 298 -22 c 0
 190 -22 151 44 151 47 c 0
 151 65 202 96 224 96 c 0
 232 96 233 94 237 89 c 0
 250 75 287 33 364 33 c 0
 455 33 561 73 561 197 c 0
 561 292 479 352 378 352 c 0
 357 352 334 348 330 348 c 0
 327 348 320 349 320 355 c 0
 320 380 389 404 401 408 c 0
 505 443 600 475 600 563 c 0
 600 616 551 651 497 651 c 0
 434 651 392 621 346 556 c 0
 275 453 237 322 215 236 c 0
 185 120 147 47 134 24 c 0
 118 -4 76 -22 60 -22 c 0
 58 -22 50 -22 50 -15 c 0
 50 -14 50 -12 55 -3 c 0
 104 94 123 155 160 325 c 0
 178 411 202 539 214 637 c 1
 195 628 169 614 157 614 c 0
 153 614 146 614 146 620 c 0
 146 638 184 657 230 680 c 0
 250 690 280 705 291 705 c 0
 300 705 302 702 302 695 c 0
 302 692 302 690 300 679 c 2
EndSplineSet
EndChar

StartChar: C
Encoding: 67 67 2
Width: 622
Flags: HW
HStem: -24 55<261 320.5> 650 55<418.5 444>
VStem: 50 85<171 229> 487 85<616.5 617.5>
LayerCount: 2
Fore
SplineSet
534 157 m 0
 534 132 401 -24 240 -24 c 0
 124 -24 50 57 50 203 c 0
 50 255 62 410 181 554 c 0
 227 610 346 705 491 705 c 0
 527 705 572 697 572 642 c 0
 572 591 514 493 512 489 c 0
 500 473 463 451 443 451 c 0
 437 451 432 451 432 458 c 0
 432 460 432 462 438 473 c 0
 450 493 487 564 487 599 c 0
 487 636 463 650 425 650 c 0
 322 650 268 598 224 534 c 0
 171 455 135 336 135 246 c 0
 135 96 216 31 306 31 c 0
 371 31 415 65 446 112 c 0
 458 129 462 136 482 149 c 0
 483 149 507 164 524 164 c 0
 529 164 534 163 534 157 c 0
EndSplineSet
EndChar

StartChar: D
Encoding: 68 68 3
Width: 845
Flags: HW
HStem: 0 55<130 292> 628 55<388 420.5>
VStem: 710 85<314.5 495.5 314.5 518>
LayerCount: 2
Fore
SplineSet
233 0 m 2
 130 0 l 2
 108 0 107 1 107 7 c 0
 107 17 131 40 168 53 c 1
 238 228 289 419 305 628 c 1
 179 622 151 587 137 547 c 0
 131 528 128 522 107 508 c 0
 99 503 76 489 60 489 c 0
 54 489 50 491 50 497 c 0
 50 505 69 588 202 647 c 1
 286 683 345 683 431 683 c 0
 526 683 618 683 704 627 c 0
 753 596 795 540 795 451 c 0
 795 178 466 0 233 0 c 2
238 55 m 1
 292 55 l 2
 534 55 710 212 710 408 c 0
 710 628 454 628 387 628 c 1
 373 508 352 334 238 55 c 1
EndSplineSet
EndChar

StartChar: E
Encoding: 69 69 4
Width: 637
Flags: HW
HStem: -22 55<249.5 302.5> 650 55<405 416.5>
VStem: 50 85<107.5 114> 167 85<498 529.5 498 536> 502 85<608.5 621>
LayerCount: 2
Fore
SplineSet
261 363 m 1
 212 380 167 416 167 475 c 0
 167 597 337 705 473 705 c 0
 518 705 587 696 587 637 c 0
 587 580 525 541 495 541 c 0
 492 541 485 541 485 548 c 0
 485 551 488 556 490 559 c 0
 494 565 502 579 502 595 c 0
 502 647 426 650 407 650 c 0
 267 650 252 541 252 518 c 0
 252 478 280 409 421 403 c 0
 426 403 431 402 431 396 c 0
 431 385 396 350 349 348 c 0
 191 342 135 194 135 145 c 0
 135 70 214 33 285 33 c 0
 374 33 416 91 437 120 c 0
 460 151 498 164 510 164 c 0
 515 164 520 163 520 157 c 0
 520 136 386 -22 219 -22 c 0
 124 -22 50 26 50 102 c 0
 50 126 61 255 261 363 c 1
EndSplineSet
EndChar

StartChar: F
Encoding: 70 70 5
Width: 913
Flags: HW
HStem: -32 129<116.5 189.5> 294 65<630 643> 304 55<452 624 431 692> 629 55<378 391 391 453 530 662 530 530>
LayerCount: 2
Fore
SplineSet
863 645 m 0xb0
 863 618 809 588 785 588 c 0
 782 588 779 589 777 591 c 0
 774 596 777 606 775 612 c 1
 757 634 687 629 662 629 c 2
 530 629 l 1
 512 537 478 449 452 359 c 1
 692 359 l 2
 704 359 711 360 711 353 c 0
 711 322 654 294 632 294 c 0xb0
 628 294 622 297 622 301 c 0
 622 302 623 303 624 304 c 1xd0
 431 304 l 1
 405 244 339 80 306 42 c 0
 274 5 215 -32 164 -32 c 0
 115 -32 70 -5 52 42 c 0
 51 44 50 46 50 48 c 0
 50 65 105 97 128 97 c 0
 135 97 135 93 138 87 c 0
 156 48 189 24 233 24 c 1
 247 36 301 161 307 174 c 0
 351 272 410 427 449 610 c 0
 449 611 453 629 453 629 c 1
 391 629 l 2
 360 629 330 627 299 627 c 1
 285 612 255 594 233 594 c 0
 227 594 225 595 223 601 c 1
 239 655 328 684 378 684 c 2
 755 684 l 2
 786 684 863 691 863 645 c 0xb0
EndSplineSet
EndChar

StartChar: G
Encoding: 71 71 6
Width: 657
Flags: HW
HStem: -119 55<172.5 302> 68 55<240.5 261.5> 650 55<366 422.5>
VStem: 50 85<258.5 353.5 258.5 389.5> 522 85<579 658.5>
LayerCount: 2
Fore
SplineSet
442 159 m 1
 376 106 299 68 224 68 c 0
 95 68 50 171 50 272 c 0
 50 507 253 705 479 705 c 0
 493 705 527 705 564 693 c 0
 576 689 607 679 607 638 c 0
 607 604 567 548 559 537 c 0
 532 500 499 473 470 473 c 0
 464 473 459 473 459 480 c 0
 459 484 462 488 466 492 c 1
 470 498 522 562 522 596 c 0
 522 628 497 636 486 639 c 0
 461 647 432 650 413 650 c 0
 300 650 251 597 224 565 c 0
 166 495 135 392 135 315 c 0
 135 202 192 123 289 123 c 0
 413 123 472 271 482 305 c 0
 489 330 490 335 513 350 c 0
 534 364 551 369 560 369 c 0
 569 369 571 366 571 360 c 0
 571 356 550 276 530 207 c 0
 527 195 510 138 484 82 c 0
 409 -81 291 -119 219 -119 c 0
 126 -119 58 -78 58 -69 c 0
 58 -58 93 -23 138 -21 c 1
 197 -61 268 -64 285 -64 c 0
 319 -64 340 -62 379 6 c 0
 389 22 415 68 442 159 c 1
EndSplineSet
EndChar

StartChar: H
Encoding: 72 72 7
Width: 880
Flags: HW
HStem: -47 55 348 55 628 55<237 354>
VStem: 303 85 584 85
LayerCount: 2
Fore
SplineSet
360 335 m 1
 628 335 l 1
 658 437 689 538 729 636 c 0
 733 645 739 650 740 652 c 0
 759 669 788 683 803 683 c 0
 807 683 813 683 813 676 c 0
 813 674 813 672 810 665 c 0
 724 437 675 249 658 138 c 0
 655 116 648 61 648 49 c 0
 648 18 671 6 689 6 c 0
 690 6 709 7 720 9 c 0
 739 12 740 13 744 21 c 0
 759 60 812 74 820 74 c 0
 825 74 830 72 830 66 c 0
 830 34 756 -49 623 -49 c 0
 580 -49 563 -23 563 6 c 0
 563 85 604 248 615 290 c 1
 599 280 580 280 569 280 c 2
 344 280 l 1
 318 188 288 98 253 10 c 0
 249 0 247 -2 242 -8 c 0
 222 -28 191 -41 177 -41 c 0
 175 -41 167 -41 167 -34 c 0
 167 -33 167 -31 176 -8 c 0
 222 114 250 210 271 280 c 1
 199 280 l 2
 177 280 176 281 176 287 c 0
 176 302 222 334 250 335 c 1
 286 335 l 1
 307 421 310 439 315 467 c 0
 327 536 330 583 330 584 c 0
 330 600 323 628 282 628 c 0
 192 628 163 590 136 539 c 0
 115 501 68 489 60 489 c 0
 57 489 50 489 50 496 c 0
 50 501 76 568 157 623 c 0
 204 655 272 683 348 683 c 0
 360 683 415 683 415 627 c 0
 415 615 408 548 396 481 c 1
 386 433 373 382 360 335 c 1
EndSplineSet
EndChar

StartChar: I
Encoding: 73 73 8
Width: 759
Flags: HW
HStem: 0 55<138 202 202 215.5 283 415> 628 55<429 461 527 537 537 622>
LayerCount: 2
Fore
SplineSet
429 683 m 2
 686 683 l 2
 708 683 709 682 709 676 c 0
 709 664 686 648 677 643 c 0
 651 628 642 628 622 628 c 2
 537 628 l 2
 517 628 516 627 510 618 c 0
 469 557 445 460 418 351 c 0
 384 215 354 116 283 55 c 1
 474 55 l 2
 524 55 527 61 534 82 c 1
 544 107 591 130 608 130 c 0
 611 130 619 130 619 123 c 0
 619 87 532 0 415 0 c 2
 73 0 l 2
 51 0 50 1 50 7 c 0
 50 17 72 34 83 40 c 0
 108 55 119 55 138 55 c 2
 202 55 l 2
 229 55 230 56 240 67 c 1
 281 120 304 198 333 316 c 0
 369 460 398 567 461 628 c 1
 370 628 l 2
 336 628 303 626 269 622 c 0
 202 613 199 604 187 566 c 1
 179 544 131 519 113 519 c 0
 107 519 102 520 102 527 c 0
 102 540 125 608 227 651 c 1
 251 660 305 683 429 683 c 2
EndSplineSet
EndChar

StartChar: J
Encoding: 74 74 9
Width: 893
Flags: HW
HStem: -119 55<245 260.5> 628 55<618 692>
VStem: 50 85<31.5 56.5> 271 92
LayerCount: 2
Fore
SplineSet
618 683 m 2
 820 683 l 2
 842 683 843 682 843 676 c 0
 843 665 809 631 764 628 c 0
 741 626 737 623 721 605 c 0
 646 521 598 339 561 194 c 0
 543 123 525 50 433 -29 c 0
 384 -71 303 -119 218 -119 c 0
 120 -119 50 -59 50 33 c 0
 50 80 61 90 73 99 c 0
 101 120 124 125 130 125 c 0
 139 125 140 119 140 116 c 0
 140 112 135 95 135 75 c 0
 135 -12 206 -64 284 -64 c 0
 385 -64 446 36 470 129 c 0
 536 389 582 540 692 628 c 1
 559 628 l 2
 461 628 389 585 356 479 c 0
 350 461 305 433 282 433 c 0
 278 433 272 433 272 440 c 0
 272 442 284 526 393 604 c 0
 439 637 522 683 618 683 c 2
EndSplineSet
EndChar

StartChar: K
Encoding: 75 75 10
Width: 803
Flags: HW
HStem: -22 43<510.5 559> 662 43<661 667.5>
VStem: 261 60<380 431> 693 60<620.5 633>
LayerCount: 2
Fore
SplineSet
216 638 m 1
 168 614 166 614 157 614 c 0
 153 614 146 614 146 620 c 0
 146 638 184 657 230 680 c 0
 250 690 280 705 291 705 c 0
 302 705 302 701 302 689 c 0
 302 685 300 644 295 604 c 0
 265 350 135 23 130 16 c 0
 114 -3 78 -22 60 -22 c 0
 58 -22 50 -22 50 -15 c 0
 50 -14 50 -12 55 0 c 0
 114 156 205 420 216 638 c 1
747 127 m 0
 747 124 743 99 717 67 c 0
 679 19 598 -22 520 -22 c 0
 490 -22 469 -9 434 25 c 1
 362 98 261 314 261 400 c 0
 261 462 368 538 410 569 c 1
 489 625 627 705 695 705 c 0
 732 705 753 679 753 645 c 0
 753 596 705 593 703 593 c 0
 694 593 691 598 691 604 c 0
 691 608 693 613 693 620 c 0
 693 646 678 662 657 662 c 0
 610 662 433 560 359 487 c 1
 324 451 321 441 321 425 c 0
 321 335 462 21 559 21 c 0
 561 21 659 21 686 97 c 0
 691 113 693 116 705 124 c 1
 719 135 730 136 735 136 c 0
 747 136 747 128 747 127 c 0
EndSplineSet
EndChar

StartChar: L
Encoding: 76 76 11
Width: 724
Flags: HW
HStem: -22 62<427.5 543.5> 643 62<454 582>
VStem: 541 97<551 637>
LayerCount: 2
Fore
SplineSet
199 93 m 1
 212 96 226 97 239 97 c 0
 289 97 344 81 372 73 c 0
 438 55 488 40 536 40 c 0
 551 40 552 40 560 52 c 0
 564 58 570 66 575 82 c 0
 581 99 583 105 610 122 c 1
 627 134 651 145 667 145 c 0
 668 145 674 145 674 138 c 0
 674 135 668 110 648 83 c 0
 616 39 534 -22 453 -22 c 0
 402 -22 351 -7 300 7 c 0
 237 25 202 34 152 35 c 1
 129 11 127 9 110 -1 c 0
 84 -18 63 -22 59 -22 c 0
 52 -22 50 -18 50 -16 c 0
 50 -11 60 7 87 32 c 0
 101 45 127 89 134 101 c 0
 164 161 172 192 190 261 c 0
 209 336 256 516 336 598 c 0
 434 697 522 705 554 705 c 0
 610 705 638 664 638 610 c 0
 638 569 629 559 611 545 c 0
 586 527 559 516 543 516 c 0
 542 516 536 516 536 523 c 0
 536 528 541 542 541 560 c 0
 541 574 539 643 470 643 c 0
 438 643 430 634 418 621 c 0
 356 552 318 432 283 294 c 0
 270 241 253 177 199 93 c 1
EndSplineSet
EndChar

StartChar: M
Encoding: 77 77 12
Width: 1189
Flags: HW
HStem: -50 92<160.5 167> 685 20<444 454.5>
VStem: 970 85<132 149.5>
LayerCount: 2
Fore
SplineSet
408 559 m 1
 380 415 324 257 277 144 c 1
 257 93 198 -50 136 -50 c 0
 131 -50 107 -49 82 -36 c 0
 50 -19 50 -7 50 2 c 0
 50 30 72 75 86 75 c 0
 88 75 90 75 95 70 c 0
 117 50 154 42 167 42 c 0
 186 42 208 42 288 255 c 1
 358 446 378 578 390 662 c 0
 393 683 435 705 453 705 c 0
 456 705 461 705 464 700 c 1
 464 698 469 671 472 657 c 0
 489 560 506 477 535 364 c 0
 570 224 588 186 613 133 c 1
 712 217 1004 567 1098 681 c 0
 1117 703 1118 704 1122 704 c 0
 1129 704 1130 693 1130 689 c 0
 1130 681 1129 679 1128 672 c 0
 1099 548 1055 245 1055 134 c 0
 1055 130 1055 100 1058 68 c 0
 1060 45 1062 29 1086 26 c 1
 1097 33 1117 42 1130 42 c 0
 1133 42 1139 41 1139 35 c 0
 1139 15 1063 -29 1021 -29 c 0
 979 -29 975 0 974 11 c 0
 971 38 970 64 970 91 c 0
 970 208 1006 433 1020 518 c 1
 801 263 l 2
 731 183 679 125 603 52 c 0
 585 34 583 34 579 34 c 0
 569 34 558 56 536 99 c 0
 479 215 435 429 408 559 c 1
EndSplineSet
EndChar

StartChar: N
Encoding: 78 78 13
Width: 1107
Flags: HW
HStem: -50 92<165 171> 683 92
LayerCount: 2
Fore
SplineSet
385 574 m 1
 366 467 335 318 270 137 c 0
 254 91 203 -50 139 -50 c 0
 111 -50 50 -30 50 1 c 0
 50 25 71 75 87 75 c 0
 88 75 90 75 95 71 c 0
 121 47 160 42 170 42 c 0
 190 42 202 60 210 75 c 0
 237 123 331 386 359 652 c 0
 360 663 361 672 371 681 c 0
 400 705 420 705 422 705 c 0
 431 705 432 704 438 684 c 0
 465 594 497 490 550 348 c 0
 598 219 629 140 684 57 c 1
 715 186 747 316 782 444 c 0
 828 611 852 684 880 720 c 1
 892 733 937 775 1037 775 c 0
 1051 775 1057 775 1057 759 c 0
 1057 737 1038 684 1018 683 c 0
 895 681 875 643 874 641 c 0
 854 595 778 321 718 58 c 0
 707 9 706 8 692 -5 c 1
 681 -13 660 -25 646 -25 c 0
 637 -25 636 -24 622 -3 c 0
 561 92 533 154 470 324 c 0
 425 447 403 522 385 574 c 1
EndSplineSet
EndChar

StartChar: O
Encoding: 79 79 14
Width: 820
Flags: HW
HStem: -22 55<284 386.5> 650 55<540 574.5>
VStem: 50 85<217.5 357 217.5 396> 685 85<337 504.5>
LayerCount: 2
Fore
SplineSet
770 482 m 0
 770 174 484 -22 289 -22 c 0
 123 -22 50 106 50 246 c 0
 50 546 346 705 381 705 c 0
 383 705 391 705 391 698 c 0
 391 685 361 667 351 661 c 0
 205 575 135 425 135 289 c 0
 135 146 213 33 355 33 c 0
 540 33 685 235 685 439 c 0
 685 570 623 650 526 650 c 0
 486 650 466 635 442 608 c 0
 405 566 382 517 373 497 c 0
 362 474 361 471 343 458 c 0
 328 447 312 437 293 437 c 0
 288 437 283 438 283 444 c 0
 283 446 313 536 393 615 c 0
 400 621 488 705 592 705 c 0
 714 705 770 609 770 482 c 0
EndSplineSet
EndChar

StartChar: P
Encoding: 80 80 15
Width: 812
Flags: HW
HStem: -50 21<143.5 155> 205 54 628 55<386 438 386 386>
VStem: 677 85<443.5 531>
LayerCount: 2
Fore
SplineSet
377 683 m 2
 511 683 l 2
 627 683 762 638 762 524 c 0
 762 359 526 205 344 205 c 0
 331 205 325 205 325 212 c 0
 325 218 333 229 351 241 c 0
 379 259 390 259 411 260 c 0
 605 266 677 406 677 481 c 0
 677 581 560 628 438 628 c 2
 386 628 l 1
 356 350 274 120 222 -2 c 0
 211 -28 163 -50 147 -50 c 0
 140 -50 137 -46 137 -43 c 0
 137 -42 137 -40 143 -25 c 0
 227 184 287 403 305 628 c 1
 179 622 151 587 137 547 c 0
 131 528 128 522 107 508 c 0
 99 503 76 489 60 489 c 0
 54 489 50 491 50 497 c 0
 50 499 53 528 88 568 c 0
 129 615 236 683 377 683 c 2
EndSplineSet
EndChar

StartChar: Q
Encoding: 81 81 16
Width: 774
Flags: HW
HStem: -124 55<543 568.5> 102 55<245 274.5> 650 55<389 488>
VStem: 50 85<278.5 392> 627 85<367.5 483.5>
LayerCount: 2
Fore
SplineSet
160 28 m 2
 189 28 l 2
 353 28 426 62 491 121 c 1
 586 205 627 318 627 417 c 0
 627 550 551 650 425 650 c 0
 248 650 135 455 135 330 c 0
 135 227 200 157 290 157 c 0
 300 157 342 158 383 181 c 0
 397 188 414 198 428 198 c 0
 432 198 439 198 439 192 c 0
 439 168 325 102 224 102 c 0
 113 102 50 182 50 288 c 0
 50 496 287 705 491 705 c 0
 638 705 712 595 712 459 c 0
 712 218 494 45 321 -4 c 1
 465 -53 510 -69 576 -69 c 0
 603 -69 624 -66 638 -26 c 0
 643 -13 645 -6 668 9 c 0
 684 20 705 28 715 28 c 0
 720 28 724 25 724 20 c 0
 724 -21 627 -124 510 -124 c 0
 431 -124 360 -99 291 -74 c 0
 191 -39 150 -30 83 -27 c 0
 78 -27 73 -27 73 -20 c 0
 73 -8 97 8 105 13 c 0
 130 28 141 28 160 28 c 2
EndSplineSet
EndChar

StartChar: R
Encoding: 82 82 17
Width: 916
Flags: HW
HStem: -22 55<670.5 690.5> 628 55<392 434 387 517.5>
VStem: 676 85<506 548>
LayerCount: 2
Fore
SplineSet
434 628 m 2
 387 628 l 1
 356 308 229 26 227 21 c 0
 216 2 174 -22 154 -22 c 0
 152 -22 144 -22 144 -15 c 0
 144 -14 144 -12 149 -1 c 0
 193 106 230 216 257 328 c 0
 291 474 300 567 305 628 c 1
 179 622 151 587 137 547 c 0
 131 528 128 522 107 508 c 0
 99 503 76 489 60 489 c 0
 54 489 50 491 50 497 c 0
 50 505 68 588 202 647 c 0
 286 683 342 683 442 683 c 0
 593 683 761 683 761 558 c 0
 761 454 663 349 518 296 c 1
 541 269 559 232 580 182 c 0
 614 104 645 33 696 33 c 0
 745 33 767 64 783 87 c 0
 804 116 843 130 855 130 c 0
 858 130 866 130 866 123 c 0
 866 101 751 -22 630 -22 c 0
 571 -22 545 24 499 129 c 0
 447 247 427 267 385 274 c 0
 384 274 380 274 380 280 c 0
 380 291 414 326 463 328 c 0
 628 334 676 454 676 515 c 0
 676 581 626 628 434 628 c 2
EndSplineSet
EndChar

StartChar: S
Encoding: 83 83 18
Width: 724
Flags: HW
HStem: -22 55<268 334.5> 650 55<448.5 453.5>
VStem: 50 85<133 174> 223 85<505.5 544.5 505.5 548> 520 85<159 226>
LayerCount: 2
Fore
SplineSet
147 219 m 1
 140 203 135 185 135 167 c 0
 135 99 217 33 319 33 c 0
 471 33 520 117 520 184 c 0
 520 268 429 314 358 346 c 0
 310 367 223 407 223 491 c 0
 223 605 383 705 514 705 c 0
 528 705 574 705 621 683 c 0
 648 671 674 657 674 608 c 0
 674 569 663 556 650 546 c 0
 630 529 606 519 593 519 c 0
 589 519 583 519 583 526 c 0
 583 529 584 533 585 536 c 0
 588 547 589 552 589 566 c 0
 589 609 563 621 544 630 c 0
 501 649 459 650 448 650 c 0
 434 650 378 647 348 621 c 0
 317 594 308 555 308 534 c 0
 308 477 354 436 424 404 c 0
 505 368 605 322 605 227 c 0
 605 91 416 -22 253 -22 c 0
 131 -22 50 52 50 124 c 0
 50 224 148 267 182 267 c 0
 188 267 194 267 194 260 c 0
 194 246 159 224 147 219 c 1
EndSplineSet
EndChar

StartChar: T
Encoding: 84 84 19
Width: 900
Flags: HW
HStem: 0 62 621 62<313 431 502 668 502 502> 697 20<835.5 843.5>
VStem: 45 104
LayerCount: 2
Fore
SplineSet
502 621 m 1
 390 175 l 2
 369 92 325 -10 319 -20 c 0
 304 -41 255 -68 235 -68 c 0
 230 -68 226 -67 226 -61 c 0
 226 -59 226 -57 232 -45 c 0
 261 20 282 83 294 132 c 2
 408 585 l 2
 410 595 414 610 431 621 c 1
 232 621 l 2
 188 621 180 613 170 601 c 0
 150 575 148 556 147 539 c 0
 145 515 82 482 58 482 c 0
 50 482 50 488 50 494 c 0
 50 576 189 683 313 683 c 2
 750 683 l 2
 769 683 771 683 779 689 c 0
 804 707 830 717 841 717 c 0
 846 717 850 715 850 710 c 0
 850 697 800 621 668 621 c 2
 502 621 l 1
EndSplineSet
EndChar

StartChar: U
Encoding: 85 85 20
Width: 805
Flags: HW
HStem: -22 55<111.5 248.5> 628 55<170.5 259>
VStem: 50 85<107 127> 215 85<570 658.5> 502 85<46 49.5>
LayerCount: 2
Fore
SplineSet
560 296 m 1
 559 297 l 1
 516 239 471 179 402 114 c 0
 300 19 209 -22 147 -22 c 0
 76 -22 50 32 50 98 c 0
 50 156 71 220 137 370 c 0
 179 466 215 548 215 592 c 0
 215 614 206 628 184 628 c 0
 157 628 141 618 134 613 c 0
 118 602 100 594 88 594 c 0
 84 594 77 594 77 600 c 0
 77 621 173 683 250 683 c 0
 268 683 300 682 300 635 c 0
 300 590 270 519 234 437 c 0
 174 300 135 210 135 140 c 0
 135 74 165 33 213 33 c 0
 284 33 382 149 413 184 c 0
 512 300 611 465 644 560 c 0
 656 597 658 602 671 637 c 0
 679 656 724 683 745 683 c 0
 749 683 755 683 755 676 c 0
 755 668 742 627 730 599 c 0
 701 525 587 175 587 53 c 0
 587 39 594 29 607 27 c 1
 618 33 636 42 648 42 c 0
 653 42 658 40 658 35 c 0
 658 15 583 -28 543 -28 c 0
 519 -28 502 -16 502 11 c 0
 502 88 537 212 560 296 c 1
EndSplineSet
EndChar

StartChar: V
Encoding: 86 86 21
Width: 726
Flags: HW
HStem: -45 21<203.5 212.5> 635 48
VStem: 230 74 632 44<465.5 609.5>
LayerCount: 2
Fore
SplineSet
286 86 m 1
 458 220 632 425 632 506 c 0
 632 530 620 583 553 591 c 0
 541 592 536 592 536 607 c 0
 536 620 550 683 579 683 c 0
 620 683 676 652 676 567 c 0
 676 500 638 411 587 333 c 0
 460 140 218 -45 207 -45 c 0
 200 -45 200 -33 200 -28 c 0
 200 -24 200 -22 202 -10 c 0
 214 57 227 177 227 278 c 0
 227 391 215 620 69 633 c 0
 55 634 50 634 50 641 c 0
 50 655 85 683 119 683 c 0
 301 683 301 385 301 314 c 0
 301 299 301 209 286 86 c 1
EndSplineSet
EndChar

StartChar: W
Encoding: 87 87 22
Width: 1102
Flags: HW
HStem: -45 21<163.5 169.5 690.5 694.5> 663 20<102 135.5 621.5 636 964.5 993.5>
VStem: 206 74 1008 44<490.5 549>
LayerCount: 2
Fore
SplineSet
257 129 m 1
 258 129 l 1
 424 338 514 507 575 622 c 1
 573 627 569 636 569 640 c 0
 569 658 612 683 631 683 c 0
 641 683 642 679 645 672 c 0
 686 562 744 333 755 118 c 0
 756 95 756 94 757 94 c 0
 764 94 1008 402 1008 516 c 0
 1008 582 962 589 948 591 c 0
 941 592 936 593 936 607 c 0
 936 622 951 683 978 683 c 0
 1009 683 1052 657 1052 577 c 0
 1052 404 838 113 714 -26 c 0
 698 -44 697 -45 692 -45 c 0
 689 -45 686 -41 686 -37 c 1
 685 -34 684 12 684 16 c 0
 683 69 678 130 672 183 c 0
 653 346 619 484 589 577 c 1
 585 570 559 518 520 449 c 0
 411 259 300 107 189 -25 c 0
 173 -44 172 -45 167 -45 c 0
 160 -45 160 -33 160 -29 c 0
 160 -20 161 -16 164 -3 c 0
 170 20 205 194 205 345 c 0
 205 388 202 464 181 527 c 0
 154 608 111 629 68 633 c 0
 55 634 50 634 50 641 c 0
 50 655 85 683 119 683 c 0
 152 683 206 672 245 593 c 1
 279 521 279 409 279 380 c 0
 279 295 270 211 257 129 c 1
EndSplineSet
EndChar

StartChar: X
Encoding: 88 88 23
Width: 858
Flags: HW
HStem: 0 55<555.5 565.5> 628 55<343.5 344.5>
VStem: 50 85<39 112.5> 684 124<632 642>
LayerCount: 2
Fore
SplineSet
479 551 m 2
 494 398 l 1
 563 440 605 466 635 486 c 0
 720 544 723 559 723 584 c 0
 723 623 699 627 691 628 c 0
 690 628 684 629 684 635 c 0
 684 649 730 683 761 683 c 0
 790 683 808 661 808 627 c 0
 808 585 808 550 497 364 c 1
 507 260 510 234 513 202 c 0
 521 118 527 55 584 55 c 0
 586 55 591 55 594 56 c 1
 613 90 657 103 667 103 c 0
 673 103 678 103 678 96 c 0
 678 68 613 0 518 0 c 0
 444 0 437 66 429 145 c 0
 427 162 412 312 412 314 c 1
 360 281 302 249 241 209 c 0
 135 138 135 126 135 99 c 0
 135 60 159 56 167 55 c 0
 171 54 174 53 174 48 c 0
 174 33 128 0 98 0 c 0
 68 0 50 22 50 56 c 0
 50 85 52 115 166 196 c 0
 238 246 373 327 409 347 c 1
 395 494 l 2
 385 597 372 628 317 628 c 1
 315 627 l 1
 297 593 253 580 242 580 c 0
 237 580 231 580 231 587 c 0
 231 615 296 683 391 683 c 0
 461 683 471 626 479 551 c 2
EndSplineSet
EndChar

StartChar: Y
Encoding: 89 89 24
Width: 786
Flags: HW
HStem: -135 77<194 211> 634 49
VStem: 358 74 696 40<506.5 609.5>
LayerCount: 2
Fore
SplineSet
427 97 m 1
 649 313 696 491 696 522 c 0
 696 551 681 598 622 605 c 0
 607 607 603 608 603 623 c 0
 603 633 612 683 641 683 c 0
 679 683 736 652 736 567 c 0
 736 515 701 343 501 113 c 0
 414 12 249 -135 173 -135 c 0
 88 -135 50 -62 50 -21 c 0
 50 4 69 38 81 38 c 0
 87 38 88 32 90 25 c 0
 109 -58 190 -58 198 -58 c 0
 247 -58 347 26 349 28 c 0
 351 29 351 31 352 39 c 0
 353 52 357 121 357 181 c 0
 357 272 350 361 331 441 c 0
 301 567 244 632 156 633 c 1
 134 604 103 599 97 599 c 0
 95 599 87 599 87 607 c 0
 87 622 148 683 217 683 c 0
 426 683 431 322 431 217 c 0
 431 189 430 135 427 97 c 1
EndSplineSet
EndChar

StartChar: Z
Encoding: 90 90 25
Width: 830
Flags: HW
HStem: 0 62<451.5 575> 351 43<323.5 468 368 423 368 481> 621 62<361 498.5>
LayerCount: 2
Fore
SplineSet
481 351 m 1
 191 86 l 1
 210 90 234 90 240 90 c 0
 293 90 368 80 418 74 c 0
 510 62 545 62 575 62 c 1
 606 97 616 131 622 150 c 0
 631 179 691 208 710 208 c 0
 715 208 719 207 719 201 c 0
 719 195 701 124 640 70 c 0
 608 41 549 0 476 0 c 0
 427 0 360 8 312 15 c 1
 266 20 201 28 156 28 c 0
 140 28 123 28 105 18 c 0
 92 10 71 0 58 0 c 0
 51 0 50 4 50 7 c 0
 50 14 69 31 82 42 c 0
 165 112 237 177 239 179 c 0
 369 296 416 343 423 351 c 1
 332 351 l 2
 315 351 306 351 306 360 c 0
 306 364 315 394 368 394 c 2
 468 394 l 1
 555 483 601 534 654 596 c 1
 643 593 631 593 619 593 c 0
 583 593 542 601 492 610 c 0
 432 621 404 621 395 621 c 0
 327 621 314 599 301 560 c 0
 292 533 232 504 213 504 c 0
 205 504 204 509 204 512 c 0
 204 513 212 571 302 628 c 1
 355 660 415 683 479 683 c 0
 518 683 554 676 609 666 c 0
 667 655 692 655 710 655 c 1
 739 677 765 683 772 683 c 0
 779 683 780 679 780 676 c 0
 780 666 647 516 552 421 c 0
 544 412 528 397 528 395 c 0
 528 394 542 393 544 393 c 0
 567 392 609 387 609 362 c 0
 609 341 578 324 562 324 c 0
 557 324 549 324 549 334 c 1
 548 336 547 340 546 341 c 0
 540 346 521 350 481 351 c 1
EndSplineSet
EndChar
